# xmcd CD database file
#
# Track frame offsets:
#	150
#	23987
#	61887
#	78611
#	106815
#	139211
#	148366
#	168177
#	202465
#	224341
#	240592
#	254922
#	275006
#	296031
#
# Disc length: 4274 seconds
#
# Revision: 0
# Processed by: cddbd v1.5.2PL0 Copyright (c) Steve Scherf et al.
# Submitted via: CDex 1.50Beta7
#
DISCID=eb10b00e
DTITLE=Junior Watson and the Red Wagons - Torre Alfina Blues Festival 2007
DYEAR=1900
DGENRE=Blues
TTITLE0=Blue Light Boogie
TTITLE1=Junior's Bounce
TTITLE2=That's What You Do To Me
TTITLE3=Lonesome Old Feeling
TTITLE4=Special Lesson #1
TTITLE5=The Girl Of Ipanema
TTITLE6=If I Had A Genie
TTITLE7=Blues After Hours
TTITLE8=Pleasure Is All Mine
TTITLE9=Cjhicago Cha Cha
TTITLE10=Spring Roll
TTITLE11=Wolf Pack
TTITLE12=House Party
TTITLE13=Certainly All
EXTD=
EXTT0=
EXTT1=
EXTT2=
EXTT3=
EXTT4=
EXTT5=
EXTT6=
EXTT7=
EXTT8=
EXTT9=
EXTT10=
EXTT11=
EXTT12=
EXTT13=
PLAYORDER=
